HIERARCHY
ROOT Hips
{
	OFFSET 0.000000 121.760803 0.000000
	CHANNELS 6 Xposition Yposition Zposition Xrotation Yrotation Zrotation 
	JOINT Spine
	{
		OFFSET 0.072000 7.257294 -0.789700
		CHANNELS 3 Xrotation Yrotation Zrotation
		JOINT Spine1
		{
			OFFSET 0.000000 12.508769 -0.658067
			CHANNELS 3 Xrotation Yrotation Zrotation
			JOINT Spine1_split
			{
				OFFSET 0.000000 12.508769 -0.658067
				CHANNELS 3 Xrotation Yrotation Zrotation
				JOINT Spine2
				{
					OFFSET 0.000000 12.508769 -0.658067
					CHANNELS 3 Xrotation Yrotation Zrotation
					JOINT Neck
					{
						OFFSET 0.000000 14.033295 7.520400
						CHANNELS 3 Xrotation Yrotation Zrotation
						JOINT Head
						{
							OFFSET 0.000000 8.198502 5.703100
							CHANNELS 3 Xrotation Yrotation Zrotation
							JOINT HeadTop_End
							{
								OFFSET 0.000000 17.760803 13.332701
								CHANNELS 3 Xrotation Yrotation Zrotation
								End Site
								{
									OFFSET 0.000000 0.000000 0.000000
								}
							}
						}
					}
					JOINT LeftShoulder
					{
						OFFSET 6.292450 5.785301 -0.669000
						CHANNELS 3 Xrotation Yrotation Zrotation
						JOINT LeftShoulder_split
						{
							OFFSET 6.292450 5.785301 -0.669000
							CHANNELS 3 Xrotation Yrotation Zrotation
							JOINT LeftArm
							{
								OFFSET 13.907140 -6.093903 1.965100
								CHANNELS 3 Xrotation Yrotation Zrotation
								JOINT LeftForeArm
								{
									OFFSET 34.140198 0.000000 0.000000
									CHANNELS 3 Xrotation Yrotation Zrotation
									JOINT LeftHand
									{
										OFFSET 40.960209 0.000000 0.000000
										CHANNELS 3 Xrotation Yrotation Zrotation
										JOINT LeftHandThumb1
										{
											OFFSET 10.006996 -7.170425 9.573125
											CHANNELS 3 Xrotation Yrotation Zrotation
											JOINT LeftHandThumb2
											{
												OFFSET 1.835007 -1.059448 1.059443
												CHANNELS 3 Xrotation Yrotation Zrotation
												JOINT LeftHandThumb3
												{
													OFFSET 2.112267 -1.219513 1.219518
													CHANNELS 3 Xrotation Yrotation Zrotation
													JOINT LeftHandThumb4
													{
														OFFSET 4.843811 -2.796570 2.796576
														CHANNELS 3 Xrotation Yrotation Zrotation
														End Site
														{
															OFFSET 0.000000 0.000000 0.000000
														}
													}
												}
											}
										}
										JOINT LeftHandIndex1
										{
											OFFSET 18.389847 -0.922348 4.596882
											CHANNELS 3 Xrotation Yrotation Zrotation
											JOINT LeftHandIndex2
											{
												OFFSET 4.711273 0.000000 0.000000
												CHANNELS 3 Xrotation Yrotation Zrotation
												JOINT LeftHandIndex3
												{
													OFFSET 2.886131 0.000000 0.000000
													CHANNELS 3 Xrotation Yrotation Zrotation
													JOINT LeftHandIndex4
													{
														OFFSET 6.145912 0.000000 0.000000
														CHANNELS 3 Xrotation Yrotation Zrotation
														End Site
														{
															OFFSET 0.000000 0.000000 0.000000
														}
													}
												}
											}
										}
										JOINT LeftHandMiddle1
										{
											OFFSET 18.013008 0.000000 0.000000
											CHANNELS 3 Xrotation Yrotation Zrotation
											JOINT LeftHandMiddle2
											{
												OFFSET 4.946693 0.000000 0.000000
												CHANNELS 3 Xrotation Yrotation Zrotation
												JOINT LeftHandMiddle3
												{
													OFFSET 3.342232 0.000000 0.000000
													CHANNELS 3 Xrotation Yrotation Zrotation
													JOINT LeftHandMiddle4
													{
														OFFSET 4.461754 0.000000 0.000000
														CHANNELS 3 Xrotation Yrotation Zrotation
														End Site
														{
															OFFSET 0.000000 0.000000 0.000000
														}
													}
												}
											}
										}
										JOINT LeftHandRing1
										{
											OFFSET 15.849892 -0.102921 -4.126150
											CHANNELS 3 Xrotation Yrotation Zrotation
											JOINT LeftHandRing2
											{
												OFFSET 3.527054 0.000000 0.000000
												CHANNELS 3 Xrotation Yrotation Zrotation
												JOINT LeftHandRing3
												{
													OFFSET 2.961098 0.000000 0.000000
													CHANNELS 3 Xrotation Yrotation Zrotation
													JOINT LeftHandRing4
													{
														OFFSET 4.927200 0.000000 0.000000
														CHANNELS 3 Xrotation Yrotation Zrotation
														End Site
														{
															OFFSET 0.000000 0.000000 0.000000
														}
													}
												}
											}
										}
										JOINT LeftHandPinky1
										{
											OFFSET 12.791824 -0.832031 -6.799156
											CHANNELS 3 Xrotation Yrotation Zrotation
											JOINT LeftHandPinky2
											{
												OFFSET 3.327133 0.000000 0.000000
												CHANNELS 3 Xrotation Yrotation Zrotation
												JOINT LeftHandPinky3
												{
													OFFSET 3.014900 0.000000 0.000000
													CHANNELS 3 Xrotation Yrotation Zrotation
													JOINT LeftHandPinky4
													{
														OFFSET 5.847786 0.000000 0.000000
														CHANNELS 3 Xrotation Yrotation Zrotation
														End Site
														{
															OFFSET 0.000000 0.000000 0.000000
														}
													}
												}
											}
										}
									}
								}
							}
						}
					}
					JOINT RightShoulder
					{
						OFFSET -6.292450 5.785301 -0.669000
						CHANNELS 3 Xrotation Yrotation Zrotation
						JOINT RightShoulder_split
						{
							OFFSET -6.292450 5.785301 -0.669000
							CHANNELS 3 Xrotation Yrotation Zrotation
							JOINT RightArm
							{
								OFFSET -13.907140 -6.093903 1.965100
								CHANNELS 3 Xrotation Yrotation Zrotation
								JOINT RightForeArm
								{
									OFFSET -34.140198 0.000000 0.000000
									CHANNELS 3 Xrotation Yrotation Zrotation
									JOINT RightHand
									{
										OFFSET -40.960209 0.000000 0.000000
										CHANNELS 3 Xrotation Yrotation Zrotation
										JOINT RightHandThumb1
										{
											OFFSET -10.007050 -7.170456 9.573117
											CHANNELS 3 Xrotation Yrotation Zrotation
											JOINT RightHandThumb2
											{
												OFFSET -1.835007 -1.059448 1.059443
												CHANNELS 3 Xrotation Yrotation Zrotation
												JOINT RightHandThumb3
												{
													OFFSET -2.112267 -1.219513 1.219518
													CHANNELS 3 Xrotation Yrotation Zrotation
													JOINT RightHandThumb4
													{
														OFFSET -4.843834 -2.796585 2.796590
														CHANNELS 3 Xrotation Yrotation Zrotation
														End Site
														{
															OFFSET 0.000000 0.000000 0.000000
														}
													}
												}
											}
										}
										JOINT RightHandIndex1
										{
											OFFSET -18.389870 -0.922424 4.596786
											CHANNELS 3 Xrotation Yrotation Zrotation
											JOINT RightHandIndex2
											{
												OFFSET -4.711273 0.000000 0.000000
												CHANNELS 3 Xrotation Yrotation Zrotation
												JOINT RightHandIndex3
												{
													OFFSET -2.886131 0.000000 0.000000
													CHANNELS 3 Xrotation Yrotation Zrotation
													JOINT RightHandIndex4
													{
														OFFSET -6.145920 0.000000 0.000000
														CHANNELS 3 Xrotation Yrotation Zrotation
														End Site
														{
															OFFSET 0.000000 0.000000 0.000000
														}
													}
												}
											}
										}
										JOINT RightHandMiddle1
										{
											OFFSET -18.013008 0.000000 0.000000
											CHANNELS 3 Xrotation Yrotation Zrotation
											JOINT RightHandMiddle2
											{
												OFFSET -4.946693 0.000000 0.000000
												CHANNELS 3 Xrotation Yrotation Zrotation
												JOINT RightHandMiddle3
												{
													OFFSET -3.342232 0.000000 0.000000
													CHANNELS 3 Xrotation Yrotation Zrotation
													JOINT RightHandMiddle4
													{
														OFFSET -4.461754 0.000000 0.000000
														CHANNELS 3 Xrotation Yrotation Zrotation
														End Site
														{
															OFFSET 0.000000 0.000000 0.000000
														}
													}
												}
											}
										}
										JOINT RightHandRing1
										{
											OFFSET -15.849876 -0.102936 -4.126237
											CHANNELS 3 Xrotation Yrotation Zrotation
											JOINT RightHandRing2
											{
												OFFSET -3.527054 0.000000 0.000000
												CHANNELS 3 Xrotation Yrotation Zrotation
												JOINT RightHandRing3
												{
													OFFSET -2.961098 0.000000 0.000000
													CHANNELS 3 Xrotation Yrotation Zrotation
													JOINT RightHandRing4
													{
														OFFSET -4.927200 0.000000 0.000000
														CHANNELS 3 Xrotation Yrotation Zrotation
														End Site
														{
															OFFSET 0.000000 0.000000 0.000000
														}
													}
												}
											}
										}
										JOINT RightHandPinky1
										{
											OFFSET -12.791786 -0.832077 -6.799222
											CHANNELS 3 Xrotation Yrotation Zrotation
											JOINT RightHandPinky2
											{
												OFFSET -3.327133 0.000000 0.000000
												CHANNELS 3 Xrotation Yrotation Zrotation
												JOINT RightHandPinky3
												{
													OFFSET -3.014900 0.000000 0.000000
													CHANNELS 3 Xrotation Yrotation Zrotation
													JOINT RightHandPinky4
													{
														OFFSET -5.847786 0.000000 0.000000
														CHANNELS 3 Xrotation Yrotation Zrotation
														End Site
														{
															OFFSET 0.000000 0.000000 0.000000
														}
													}
												}
											}
										}
									}
								}
							}
						}
					}
				}
			}
		}
	}
	JOINT LeftUpLeg
	{
		OFFSET 13.026900 -6.336304 -1.092800
		CHANNELS 3 Xrotation Yrotation Zrotation
		JOINT LeftLeg
		{
			OFFSET 0.524474 -46.096886 9.782700
			CHANNELS 3 Xrotation Yrotation Zrotation
			JOINT LeftFoot
			{
				OFFSET -0.524474 -53.427422 -12.948200
				CHANNELS 3 Xrotation Yrotation Zrotation
				JOINT LeftToeBase
				{
					OFFSET 0.192200 -14.009700 16.364100
					CHANNELS 3 Xrotation Yrotation Zrotation
					JOINT LeftToe_End
					{
						OFFSET -1.784700 -0.561700 9.474800
						CHANNELS 3 Xrotation Yrotation Zrotation
						End Site
						{
							OFFSET 0.000000 0.000000 0.000000
						}
					}
				}
			}
		}
	}
	JOINT RightUpLeg
	{
		OFFSET -12.883000 -6.336304 -1.092800
		CHANNELS 3 Xrotation Yrotation Zrotation
		JOINT RightLeg
		{
			OFFSET -0.524587 -46.096825 9.782800
			CHANNELS 3 Xrotation Yrotation Zrotation
			JOINT RightFoot
			{
				OFFSET 0.524587 -53.427383 -12.948300
				CHANNELS 3 Xrotation Yrotation Zrotation
				JOINT RightToeBase
				{
					OFFSET -0.192200 -14.009700 16.364100
					CHANNELS 3 Xrotation Yrotation Zrotation
					JOINT RightToe_End
					{
						OFFSET 1.784700 -0.561700 9.474800
						CHANNELS 3 Xrotation Yrotation Zrotation
						End Site
						{
							OFFSET 0.000000 0.000000 0.000000
						}
					}
				}
			}
		}
	}
}
MOTION
Frames: 4
Frame Time: 0.016667
-0.492042 253.891083 1.841113 -4.544538 4.733296 5.125952 4.633687 -0.608136 0.398754 9.932386 -0.680238 3.008161 0.000000 0.000000 0.000000 9.936598 -0.617924 3.002059 -0.494621 1.768444 -5.437057 5.110707 1.939358 -6.547526 0.000000 -0.000000 -0.000000 -0.221753 14.341900 -11.465857 0.000000 0.000000 0.000000 4.441012 -10.208758 -60.164486 -0.000005 -50.304449 -0.000021 20.413443 -0.668121 -4.134513 -3.500367 23.141801 9.972871 -2.408841 12.775494 10.381861 -3.572556 4.191480 6.966301 -0.000000 0.000000 -0.000001 0.080927 1.054711 -8.775018 0.139273 1.380631 -11.520078 0.034902 0.693820 -5.759193 -0.000005 0.000001 -0.000000 0.080627 1.052803 -8.759045 0.139661 1.382524 -11.536051 0.034898 0.693822 -5.759202 -0.000000 -0.000000 -0.000000 0.080932 1.054714 -8.775008 0.139268 1.380625 -11.520100 0.034905 0.693822 -5.759193 -0.000001 -0.000001 0.000000 0.683442 5.064129 -8.296772 0.133622 -2.674907 -12.020555 0.034895 0.693818 -5.759210 0.000004 0.000000 -0.000001 1.119628 3.440114 7.346927 0.000000 0.000000 0.000000 -5.089676 8.252978 56.488434 0.000016 38.764547 -0.000017 3.115008 -7.514415 -6.985645 -7.604776 -2.521683 -16.076746 4.602786 -15.232181 -8.617183 -1.023797 -3.032480 -6.344361 -0.000000 -0.000000 0.000000 0.672567 -2.988255 25.363102 0.151856 -1.448116 11.972161 0.038063 -0.728029 5.985110 0.000002 0.000001 0.000001 0.672567 -2.988254 25.363098 0.151855 -1.448109 11.972172 0.038064 -0.728035 5.985115 0.000002 0.000001 0.000001 0.672570 -2.988256 25.363102 0.151860 -1.448110 11.972167 0.038064 -0.728029 5.985122 0.000001 0.000000 -0.000001 0.672568 -2.988253 25.363096 0.151854 -1.448112 11.972170 0.038063 -0.728030 5.985116 -0.000000 0.000001 0.000000 -6.944434 16.518157 6.484846 12.079387 -7.757900 -0.249723 -2.318630 0.335292 -5.655922 -0.000001 -0.000003 0.000003 -0.000000 -0.000000 0.000000 -1.129969 -10.536990 -5.364264 19.662663 5.673147 0.257384 -23.257503 -1.015697 3.869664 0.000006 0.000001 0.000000 -0.000001 0.000000 -0.000000 
-0.505471 253.823547 1.777627 -4.294491 4.745956 5.083058 4.605427 -0.610413 0.433195 9.886747 -0.664538 3.002675 0.000000 0.000000 0.000000 9.891313 -0.602347 2.995066 -0.542379 1.841334 -5.558725 5.225230 2.094419 -6.610316 0.000002 0.000001 -0.000000 -0.219942 14.506518 -11.612865 0.000000 0.000000 0.000000 4.361425 -10.445364 -59.944670 0.000013 -50.526318 0.000007 20.043439 -0.258923 -4.095672 -3.500362 23.141787 9.972887 -2.408851 12.775509 10.381879 -3.572550 4.191478 6.966299 0.000001 0.000000 0.000000 0.080930 1.054718 -8.774998 0.139274 1.380617 -11.520097 0.034904 0.693823 -5.759178 0.000002 0.000001 -0.000000 0.080633 1.052805 -8.759034 0.139660 1.382520 -11.536068 0.034899 0.693822 -5.759177 -0.000002 0.000000 -0.000000 0.080934 1.054715 -8.774997 0.139274 1.380624 -11.520092 0.034893 0.693816 -5.759188 0.000001 -0.000000 0.000001 0.683438 5.064149 -8.296752 0.133613 -2.674915 -12.020563 0.034907 0.693818 -5.759182 0.000002 -0.000001 0.000000 1.111064 3.468512 7.163203 0.000000 0.000000 0.000000 -4.424848 9.153713 56.002804 0.000024 39.178634 -0.000036 2.112970 -7.565646 -7.684045 -7.604779 -2.521697 -16.076746 4.602787 -15.232189 -8.617195 -1.023797 -3.032480 -6.344351 0.000000 0.000000 -0.000002 0.672567 -2.988265 25.363072 0.151863 -1.448119 11.972153 0.038060 -0.728024 5.985134 0.000002 -0.000000 -0.000001 0.672569 -2.988262 25.363072 0.151863 -1.448122 11.972148 0.038052 -0.728022 5.985136 -0.000001 0.000000 0.000000 0.672575 -2.988267 25.363069 0.151856 -1.448115 11.972165 0.038058 -0.728024 5.985135 -0.000004 0.000001 0.000002 0.672574 -2.988265 25.363057 0.151854 -1.448111 11.972173 0.038062 -0.728030 5.985130 -0.000003 -0.000000 -0.000002 -7.412909 16.376316 6.543415 12.410969 -7.754024 -0.253294 -2.516884 0.353142 -5.597819 0.000001 0.000004 0.000004 0.000000 0.000001 0.000000 -1.452883 -10.521001 -5.340962 19.769084 5.673632 0.258120 -23.424528 -1.018838 3.810760 0.000004 -0.000001 -0.000001 -0.000001 0.000000 -0.000000 
-0.508496 253.735977 1.710257 -4.032721 4.779604 5.034133 4.573602 -0.616189 0.470946 9.837531 -0.656224 2.999172 0.000000 0.000000 0.000000 9.842312 -0.594124 2.990731 -0.552500 1.913021 -5.689796 5.267438 2.253985 -6.652773 0.000000 0.000001 -0.000000 -0.217714 14.595756 -11.694880 0.000000 0.000000 0.000000 4.265770 -10.605525 -59.786306 -0.000004 -50.764104 -0.000021 19.817292 0.066161 -4.103479 -3.500369 23.141808 9.972886 -2.408850 12.775500 10.381864 -3.572547 4.191480 6.966296 -0.000000 -0.000000 -0.000002 0.080926 1.054718 -8.775004 0.139266 1.380627 -11.520072 0.034898 0.693823 -5.759183 -0.000002 -0.000000 0.000000 0.080635 1.052804 -8.759031 0.139658 1.382529 -11.536048 0.034907 0.693807 -5.759202 0.000001 0.000001 -0.000000 0.080931 1.054718 -8.775000 0.139265 1.380625 -11.520080 0.034908 0.693815 -5.759190 -0.000001 -0.000001 0.000001 0.683436 5.064139 -8.296763 0.133617 -2.674897 -12.020544 0.034915 0.693805 -5.759198 -0.000001 0.000001 -0.000000 1.104808 3.548997 6.940644 0.000000 0.000000 0.000000 -3.653386 10.119992 55.385249 0.000006 39.770730 -0.000016 0.971896 -7.983117 -7.726972 -7.604785 -2.521691 -16.076758 4.602787 -15.232182 -8.617201 -1.023794 -3.032479 -6.344395 -0.000000 0.000000 0.000002 0.672564 -2.988255 25.363084 0.151857 -1.448119 11.972169 0.038067 -0.728025 5.985111 -0.000001 -0.000001 -0.000000 0.672568 -2.988258 25.363072 0.151851 -1.448113 11.972190 0.038063 -0.728029 5.985117 0.000001 0.000000 -0.000000 0.672564 -2.988253 25.363084 0.151851 -1.448123 11.972172 0.038060 -0.728025 5.985121 -0.000001 -0.000000 0.000000 0.672568 -2.988259 25.363079 0.151856 -1.448113 11.972179 0.038058 -0.728026 5.985114 -0.000002 -0.000002 -0.000003 -7.955453 16.229054 6.627976 12.849993 -7.579335 -0.253488 -2.782746 0.383786 -5.574036 -0.000000 0.000005 0.000003 0.000000 0.000002 0.000000 -1.812098 -10.503927 -5.319640 19.926916 5.661914 0.258268 -23.624707 -1.023919 3.750031 0.000004 0.000000 -0.000001 0.000000 0.000000 0.000000 
-0.501619 253.623535 1.631855 -3.759009 4.839543 4.980305 4.541187 -0.625148 0.512831 9.789340 -0.654195 2.995625 0.000000 0.000000 0.000000 9.794233 -0.592125 2.986813 -0.544865 1.982232 -5.822372 5.258739 2.411932 -6.675190 0.000001 0.000000 -0.000000 -0.216484 14.635951 -11.728232 0.000000 0.000000 0.000000 4.166844 -10.728388 -59.653677 0.000010 -51.016616 0.000004 19.677567 0.328035 -4.160763 -3.500370 23.141799 9.972914 -2.408841 12.775502 10.381870 -3.572554 4.191484 6.966304 0.000002 -0.000000 -0.000001 0.080935 1.054712 -8.775010 0.139266 1.380619 -11.520086 0.034906 0.693824 -5.759190 0.000001 0.000000 0.000000 0.080637 1.052809 -8.759015 0.139661 1.382511 -11.536055 0.034895 0.693822 -5.759206 0.000001 0.000001 -0.000000 0.080932 1.054717 -8.774998 0.139260 1.380615 -11.520092 0.034898 0.693824 -5.759198 -0.000001 -0.000001 0.000000 0.683436 5.064140 -8.296768 0.133623 -2.674914 -12.020561 0.034898 0.693821 -5.759198 -0.000002 -0.000001 -0.000000 1.100242 3.659956 6.697152 0.000000 0.000000 0.000000 -2.825904 11.105685 54.696124 -0.000001 40.467174 -0.000007 -0.149447 -8.609121 -7.429760 -7.604780 -2.521683 -16.076739 4.602783 -15.232198 -8.617240 -1.023795 -3.032479 -6.344351 -0.000000 -0.000000 0.000000 0.672569 -2.988260 25.363081 0.151856 -1.448119 11.972173 0.038067 -0.728030 5.985110 0.000000 -0.000001 -0.000001 0.672570 -2.988262 25.363083 0.151849 -1.448116 11.972177 0.038067 -0.728027 5.985112 -0.000003 -0.000001 0.000000 0.672570 -2.988263 25.363076 0.151848 -1.448118 11.972181 0.038066 -0.728027 5.985114 0.000001 0.000000 0.000000 0.672569 -2.988262 25.363086 0.151853 -1.448120 11.972167 0.038062 -0.728031 5.985113 -0.000003 0.000001 0.000002 -8.587498 16.089455 6.744101 13.422028 -7.088091 -0.245045 -3.104835 0.432752 -5.622765 -0.000001 -0.000004 0.000001 0.000000 0.000001 0.000000 -2.223805 -10.483671 -5.302311 20.156127 5.631668 0.257536 -23.856915 -1.030208 3.683608 0.000002 -0.000000 -0.000001 -0.000000 0.000000 -0.000001 
